# xmcd
#
# Track frame offsets:
#	150
#	14707
#	29672
#	44670
#	55715
#	75525
#	88057
#	91973
#	106381
#	119732
#	132213
#	148578
#	167271
#	181030
#
# Disc length: 2570 seconds
#
# Revision: 1
# Processed by: cddbd v1.5.1PL0 Copyright (c) Steve Scherf et al.
# Submitted via: audiograbber 1.83.01
#
DISCID=ba0a080e
DTITLE=MK Ultra - The Dream Is Over
DYEAR=1999
DGENRE=Rock
TTITLE0=The Dream Is Over
TTITLE1=Goodbye, Max!
TTITLE2=Red on White on Blue
TTITLE3=Fortune Cookie
TTITLE4=Heavy Weather
TTITLE5=All We Have
TTITLE6=Interlude
TTITLE7=Coffee Girl
TTITLE8=Darkness and the Silver Spoon
TTITLE9=Red Cross
TTITLE10=I Miss the War
TTITLE11=What I live For
TTITLE12=Sunday
TTITLE13=Double Flame
EXTD=
EXTT0=
EXTT1=
EXTT2=
EXTT3=
EXTT4=
EXTT5=
EXTT6=
EXTT7=
EXTT8=
EXTT9=
EXTT10=
EXTT11=
EXTT12=
EXTT13=
PLAYORDER=
